<svg width="54px" height="54px" xmlns="http://www.w3.org/2000/svg" viewBox="0 0 110.5 114.3"><defs><style>.cls-1{fill:#39b54a;}.cls-2{fill:none;stroke:#9fe02d;stroke-linecap:round;stroke-linejoin:round;stroke-width:5px;}</style></defs><title>cancel</title><g id="Layer_2" data-name="Layer 2"><g id="cancel-waitlist"><path class="cls-1" d="M84.5,62.3a26,26,0,1,0,26,26A26,26,0,0,0,84.5,62.3ZM96.27,96.53a2.5,2.5,0,1,1-3.54,3.54L84.5,91.84l-8.23,8.23a2.5,2.5,0,1,1-3.54-3.54L81,88.3l-8.23-8.23a2.5,2.5,0,0,1,3.54-3.54l8.23,8.23,8.23-8.23a2.5,2.5,0,1,1,3.54,3.54L88,88.3Z"/><path class="cls-1" d="M15,33.29h0a2.48,2.48,0,0,0,2.48,2.48h30a2.48,2.48,0,0,0,1.63-4.34h0a2.48,2.48,0,0,0-1.63-.62h-30A2.48,2.48,0,0,0,15,33.29Z"/><rect class="cls-1" x="15" y="65.5" width="41.29" height="4.96" rx="2.48" ry="2.48"/><path class="cls-1" d="M15,85.32h0a2.48,2.48,0,0,0,2.48,2.48H49.75a2.48,2.48,0,0,0,1.63-.62h0a2.48,2.48,0,0,0-1.63-4.34H17.48A2.48,2.48,0,0,0,15,85.32Z"/><path class="cls-1" d="M15,50.64h0a2.48,2.48,0,0,0,2.48,2.48h49A2.48,2.48,0,0,0,69,50.64a2.74,2.74,0,0,0-1.74-2.48H17.48A2.48,2.48,0,0,0,15,50.64Z"/><polyline class="cls-2" points="85.5 53.31 85.5 10.3 2.5 10.3 2.5 108.3 53.59 108.3"/><path class="cls-1" d="M62,0H26a5,5,0,0,0-5,5h0a5,5,0,0,0,5,5h2v2a5,5,0,0,0,5,5H54.89a5,5,0,0,0,5-5v-2h2a5,5,0,0,0,5-5h0A5,5,0,0,0,62,0Z"/></g></g></svg>