<svg xmlns="http://www.w3.org/2000/svg" viewBox="0 0 124.95 123"><defs>
<style>.cls-1{font-size:15px;font-family:LemonMilkbold, Lemon/Milk;font-weight:700;}.cls-1,.cls-3,.cls-6{fill:#39b54a;}.cls-2,.cls-5,.cls-7{fill:none;stroke-width:5px;}.cls-2{stroke:#9fe02d;stroke-linejoin:round;}.cls-2,.cls-5,.cls-6{stroke-linecap:round;}.cls-4{fill:#9fe02d;}.cls-5,.cls-6,.cls-7{stroke:#39b54a;stroke-miterlimit:10;}.cls-6{stroke-width:2px;}</style></defs><title>list</title>
<g id="Layer_2" data-name="Layer 2"><g id="waitlist-icon1"><text class="cls-1" transform="translate(15 89.92)">3</text><text class="cls-1" transform="translate(15 66.48)">2</text><text class="cls-1" transform="translate(16 44.13)">1</text><polyline class="cls-2" points="42.18 13.87 2.5 14.23 2.73 38.98 3.41 113.23 42.51 112.87"/><path class="cls-3" d="M12.95,56.31"/><polygon class="cls-4" points="116.99 103.14 85.47 84 53.95 103.14 53.95 112.53 116.99 112.53 116.99 103.14"/><line class="cls-3" x1="66.95" y1="52.07" x2="66.14" y2="51.36"/><path class="cls-3" d="M30.95,40.49h0c0,1.37.74,2.48,1.65,2.48h20c1.52,0,2.24-2.83,1.09-4.34h0A1.39,1.39,0,0,0,52.61,38h-20C31.69,38,30.95,39.12,30.95,40.49Z"/><path class="cls-3" d="M52.57,81.7H32.33c-.76,0-1.38,1.11-1.38,2.48h0c0,1.37.62,2.48,1.38,2.48H52.57c.76,0,1.38-1.11,1.38-2.48h0C53.95,82.81,53.33,81.7,52.57,81.7Z"/><path class="cls-3" d="M30.95,61.83h0c0,1.37.74,2.48,1.65,2.48H65.3c.91,0,1.65-1.11,1.65-2.48,0,0,0-1.83-1.16-2.48H32.6C31.69,59.36,30.95,60.47,30.95,61.83Z"/><polyline class="cls-5" points="102.84 80.84 84.95 61.32 51.95 97.32 51.95 115 117.95 115 117.95 97.32 109.9 88.54"/><path class="cls-6" d="M45.95,119v-1a3,3,0,0,1,3-3h0a3,3,0,0,0,3-3v-1a3,3,0,0,1,3-3h60a3,3,0,0,1,3,3v1a3,3,0,0,0,3,3h0a3,3,0,0,1,3,3v1a3,3,0,0,1-3,3h-72A3,3,0,0,1,45.95,119Z"/><polygon class="cls-7" points="117.95 25.68 84.95 61.68 51.95 25.68 51.95 8 117.95 8 117.95 25.68"/><path class="cls-6" d="M45.95,4V5a3,3,0,0,0,3,3h0a3,3,0,0,1,3,3v1a3,3,0,0,0,3,3h60a3,3,0,0,0,3-3V11a3,3,0,0,1,3-3h0a3,3,0,0,0,3-3V4a3,3,0,0,0-3-3h-72A3,3,0,0,0,45.95,4Z"/></g>
</g></svg>