<svg xmlns="http://www.w3.org/2000/svg" viewBox="0 0 116.66 109.4"><defs><style>.cls-1{opacity:0.71;}.cls-2{fill:#87c663;}.cls-3{fill:#9fe02d;}.cls-4{fill:#39b54a;}.cls-5{fill:none;stroke:#39b54a;stroke-linecap:round;stroke-miterlimit:10;stroke-width:3px;}</style></defs><title>sleep</title><g id="Layer_2" data-name="Layer 2"><g id="blackout"><g class="cls-1"><path class="cls-2" d="M103.74,38.56l8.35.15a1.84,1.84,0,0,1,1.7,2.72l-5.51,9.27,4.69.08a1.91,1.91,0,0,1,1.94,1.87h0a1.91,1.91,0,0,1-2,1.8l-8.33-.15a1.84,1.84,0,0,1-1.69-2.73l5.48-9.11-4.69-.08a1.91,1.91,0,0,1-1.94-1.87v-.15A1.91,1.91,0,0,1,103.74,38.56Z"/></g><path class="cls-3" d="M99.25,0H112c2.27,0,3.72,1.94,2.66,3.55L106.5,15.93h7.15a2.76,2.76,0,0,1,3,2.42h0a2.76,2.76,0,0,1-3,2.42H100.94c-2.28,0-3.73-2-2.65-3.57L106.41,5H99.25a2.76,2.76,0,0,1-3-2.42v-.2A2.76,2.76,0,0,1,99.25,0Z"/><path class="cls-4" d="M64.73,19.94h19c3.38,0,5.55,2.89,4,5.29L75.52,43.64H86.18c2.48,0,4.49,1.61,4.49,3.6h0c0,2-2,3.6-4.49,3.6H67.24c-3.39,0-5.56-2.9-4-5.3l12.09-18.1H64.73c-2.48,0-4.49-1.61-4.49-3.6v-.29C60.24,21.55,62.25,19.94,64.73,19.94Z"/><path class="cls-4" d="M93.52,89a2.8,2.8,0,0,0-3.15-1.24A48.23,48.23,0,0,1,42.11,8.36a2.8,2.8,0,0,0-2.8-4.61,54,54,0,0,0-12.6,5.35h0A53.82,53.82,0,1,0,93.18,92.33,2.8,2.8,0,0,0,93.52,89Z"/><path class="cls-3" d="M59.44,94.58a50.8,50.8,0,0,0,22.63-5.29,48.23,48.23,0,0,1-40-80.93,2.8,2.8,0,0,0-2.8-4.61,54,54,0,0,0-12.6,5.35h0a54.06,54.06,0,0,0-11.47,9,51,51,0,0,0,44.2,76.51Z"/><path class="cls-5" d="M16.66,36.83a4,4,0,0,0,8,0"/></g></g></svg>